{"title":"Real Time With Bill Maher JUST OVERTIME 2013.04.19. XviD","uid":8391703,"size":69356768,"categoryP":"video","categoryS":"tv_shows","magnet":"?xt=urn:btih:330a736a5b48d33a40a1397bf94084382bdf6d16&amp;dn=Real+Time+With+Bill+Maher+JUST+OVERTIME+2013.04.19.+XviD+&amp;tr=udp%3A%2F%2Ftracker.openbittorrent.com%3A80&amp;tr=udp%3A%2F%2Fopen.demonii.com%3A1337&amp;tr=udp%3A%2F%2Ftracker.coppersurfer.tk%3A6969&amp;tr=udp%3A%2F%2Fexodus.desync.com%3A6969","seeders":1,"leechers":0,"uploader":"BoonesFerry","files":1,"time":1366449623,"description":"Real.Time.With.Bill.Maher.JUST.OVERTIME.2013.04.19.XviD.avi\n\n\nVideo\nID                               : 0\nFormat                           : MPEG-4 Visual\nFormat profile                   : Advanced Simple@L5\nFormat settings, BVOP            : 3\nFormat settings, QPel            : No\nFormat settings, GMC             : No warppoints\nFormat settings, Matrix          : Default (H.263)\nCodec ID                         : XVID\nCodec ID/Hint                    : XviD\nDuration                         : 7mn 51s\nBit rate                         : 1 038 Kbps\nWidth                            : 640 pixels\nHeight                           : 360 pixels\nDisplay aspect ratio             : 16:9\nFrame rate                       : 29.970 fps\nColor space                      : YUV\nChroma subsampling               : 4:2:0\nBit depth                        : 8 bits\nScan type                        : Progressive\nCompression mode                 : Lossy\nBits/(Pixel*Frame)               : 0.150\nStream size                      : 58.3 MiB (88%)\nWriting library                  : XviD 73\n\nAudio\nID                               : 1\nFormat                           : MPEG Audio\nFormat version                   : Version 1\nFormat profile                   : Layer 3\nMode                             : Joint stereo\nMode extension                   : MS Stereo\nCodec ID                         : 55\nCodec ID/Hint                    : MP3\nDuration                         : 7mn 51s\nBit rate mode                    : Constant\nBit rate                         : 128 Kbps\nChannel(s)                       : 2 channels\nSampling rate                    : 44.1 KHz\nCompression mode                 : Lossy\nStream size                      : 7.19 MiB (11%)\nAlignment                        : Split accross interleaves\nInterleave, duration             : 33 ms (1.00 video frame)\nInterleave, preload duration     : 500 ms\nWriting library                  : LAME3.99.5","torrent":{"xt":"urn:btih:330a736a5b48d33a40a1397bf94084382bdf6d16","amp;dn":"Real+Time+With+Bill+Maher+JUST+OVERTIME+2013.04.19.+XviD+","amp;tr":["udp%3A%2F%2Ftracker.openbittorrent.com%3A80","udp%3A%2F%2Fopen.demonii.com%3A1337","udp%3A%2F%2Ftracker.coppersurfer.tk%3A6969","udp%3A%2F%2Fexodus.desync.com%3A6969"],"infoHash":"330a736a5b48d33a40a1397bf94084382bdf6d16","infoHashBuffer":{"type":"Buffer","data":[51,10,115,106,91,72,211,58,64,161,57,123,249,64,132,56,43,223,109,22]},"announce":[],"urlList":[]}}